<?xml version="1.0" standalone="no"?>
<!DOCTYPE svg PUBLIC "-//W3C//DTD SVG 20010904//EN"
 "http://www.w3.org/TR/2001/REC-SVG-20010904/DTD/svg10.dtd">
<svg version="1.0" xmlns="http://www.w3.org/2000/svg"
 width="1024.000000pt" height="1024.000000pt" viewBox="0 0 1024.000000 1024.000000"
 preserveAspectRatio="xMidYMid meet">
<metadata>
Created by potrace 1.14, written by Peter Selinger 2001-2017
</metadata>
<g transform="translate(0.000000,1024.000000) scale(0.100000,-0.100000)"
fill="#000000" stroke="none">
<path d="M2597 7843 c-4 -3 -27 -7 -51 -8 -71 -5 -221 -22 -271 -31 -11 -3
-36 -7 -55 -10 -19 -3 -43 -7 -52 -10 -9 -3 -27 -7 -40 -9 -67 -12 -165 -39
-175 -48 -7 -5 -13 -7 -13 -4 0 8 -141 -41 -260 -88 -245 -99 -524 -270 -744
-457 -58 -50 -215 -207 -266 -267 -25 -29 -50 -58 -56 -65 -34 -36 -165 -222
-220 -313 -79 -130 -170 -315 -218 -446 -40 -108 -104 -322 -111 -371 -2 -17
-4 -31 -5 -31 -5 0 -40 -216 -48 -295 -13 -138 -5 -566 12 -640 3 -14 8 -41
10 -60 5 -36 36 -189 56 -270 43 -181 161 -469 263 -645 40 -70 165 -260 192
-293 8 -9 28 -35 45 -57 240 -305 580 -578 940 -752 69 -33 175 -79 237 -102
95 -34 142 -49 273 -86 20 -6 205 -44 238 -49 150 -24 325 -38 447 -36 28 0
59 0 70 0 11 -1 25 -1 30 -1 11 0 111 1 160 1 8 0 22 0 30 0 8 0 22 0 30 0 8
0 22 0 30 0 8 0 21 0 28 0 19 1 150 1 172 0 22 -1 19 -1 91 1 28 1 55 -1 60
-4 6 -3 16 -2 24 3 7 4 24 4 36 0 14 -6 26 -5 29 0 3 6 15 6 30 0 15 -6 27 -6
30 1 4 5 11 7 16 3 5 -3 40 -5 77 -5 37 1 76 1 87 1 11 -1 25 -1 30 -1 11 0
111 1 160 1 8 0 22 0 30 0 8 0 22 0 30 0 8 0 22 0 30 0 8 0 21 0 28 0 19 1
150 1 172 0 22 -1 19 -1 91 1 28 1 55 -1 60 -4 6 -3 16 -2 24 3 7 4 24 4 36 0
14 -6 26 -5 29 0 3 6 15 6 30 0 15 -6 27 -6 30 1 4 5 11 7 16 3 5 -3 40 -5 77
-5 37 1 76 1 87 1 11 -1 25 -1 30 -1 11 0 111 1 160 1 8 0 22 0 30 0 8 0 22 0
30 0 8 0 22 0 30 0 8 0 23 0 33 0 45 1 108 1 117 1 6 0 24 0 40 0 61 -1 70 -1
90 -1 11 1 26 1 33 1 6 -1 19 -1 27 -1 8 0 22 0 30 0 8 0 21 0 28 -1 16 -1
106 0 132 1 11 1 27 1 35 0 8 0 24 0 35 0 11 1 26 1 33 1 6 -1 19 -1 27 -1 8
0 22 0 30 0 8 0 21 0 28 -1 16 -1 106 0 132 1 11 1 27 1 35 0 8 0 24 0 35 0
11 1 26 1 33 1 6 -1 19 -1 27 -1 8 0 22 0 30 0 8 0 21 0 28 -1 16 -1 106 0
132 1 11 1 27 1 35 0 8 0 24 0 35 0 11 1 26 1 33 1 6 -1 19 -1 27 -1 8 0 22 0
30 0 8 0 21 0 28 -1 16 -1 106 0 132 1 11 1 27 1 35 0 8 0 24 0 35 0 11 1 26
1 33 1 6 -1 19 -1 27 -1 8 0 22 0 30 0 8 0 21 0 28 -1 16 -1 106 0 132 1 11 1
27 1 35 0 8 0 24 0 35 0 11 1 26 1 33 1 6 -1 19 -1 27 -1 8 0 22 0 30 0 8 0
21 0 28 -1 16 -1 106 0 132 1 11 1 27 1 35 0 8 0 24 0 35 0 11 1 26 1 33 1 6
-1 19 -1 27 -1 8 0 22 0 30 0 8 0 21 0 28 -1 16 -1 106 0 132 1 11 1 27 1 35
0 8 0 26 0 40 1 14 0 31 0 38 0 6 -1 18 -1 25 -2 42 -2 292 20 344 32 24 5 46
8 50 7 5 -1 33 4 63 10 30 7 65 14 78 17 109 24 335 93 407 125 11 5 49 21 85
36 81 35 266 130 302 155 14 11 29 19 32 19 8 0 161 104 164 112 2 5 8 8 13 8
5 0 18 8 28 17 11 10 26 23 33 28 55 42 106 84 141 114 46 41 215 210 237 237
29 36 105 129 115 140 6 6 17 22 25 34 8 12 20 28 26 34 5 6 19 26 29 44 11
17 23 32 27 32 4 0 8 6 8 14 0 8 6 21 13 28 7 7 22 29 33 48 10 19 22 37 25
40 16 12 149 286 186 381 40 103 72 195 74 214 1 6 6 21 11 35 5 14 11 32 13
40 2 8 8 35 15 60 7 25 14 56 17 70 2 14 8 44 13 67 5 22 13 65 16 95 3 29 8
55 9 58 25 43 25 697 1 740 -2 3 -6 28 -10 55 -3 28 -8 61 -12 75 -3 14 -8 39
-10 55 -43 248 -181 599 -335 853 -22 35 -39 68 -39 72 0 5 -3 10 -7 12 -5 2
-21 23 -38 48 -36 53 -32 49 -133 175 -85 106 -245 274 -327 340 -27 22 -56
47 -64 55 -9 8 -41 33 -71 55 -30 21 -57 42 -60 45 -11 12 -185 124 -243 156
-115 64 -306 154 -341 161 -11 2 -24 7 -30 12 -9 7 -68 29 -96 36 -3 1 -12 4
-20 7 -77 28 -246 72 -314 82 -21 4 -41 8 -45 10 -21 13 -261 38 -378 40 -46
0 -83 4 -83 7 0 4 -15 3 -34 -1 -19 -4 -40 -4 -47 1 -7 4 -20 4 -29 -1 -9 -5
-22 -5 -29 -1 -7 5 -29 5 -49 1 -20 -3 -48 -3 -62 0 -14 4 -34 3 -46 -1 -11
-4 -27 -4 -34 1 -7 5 -23 5 -35 0 -12 -5 -28 -4 -35 0 -8 5 -21 5 -30 0 -9 -5
-22 -5 -29 -1 -7 5 -29 5 -49 1 -20 -3 -48 -3 -62 0 -14 4 -34 3 -46 -1 -11
-4 -27 -4 -34 1 -7 5 -23 5 -35 0 -12 -5 -28 -4 -35 0 -8 5 -21 5 -30 0 -9 -5
-22 -5 -29 -1 -7 5 -29 5 -49 1 -20 -3 -48 -3 -62 0 -14 4 -34 3 -46 -1 -11
-4 -27 -4 -34 1 -7 5 -23 5 -35 0 -12 -5 -28 -4 -35 0 -8 5 -21 5 -30 0 -9 -5
-22 -5 -29 -1 -7 5 -29 5 -49 1 -20 -3 -48 -3 -62 0 -14 4 -34 3 -46 -1 -11
-4 -27 -4 -34 1 -7 5 -23 5 -35 0 -12 -5 -28 -4 -35 0 -8 5 -21 5 -30 0 -9 -5
-22 -5 -29 -1 -7 5 -29 5 -49 1 -20 -3 -48 -3 -62 0 -14 4 -34 3 -46 -1 -11
-4 -27 -4 -34 1 -7 5 -23 5 -35 0 -12 -5 -28 -4 -35 0 -8 5 -21 5 -30 0 -9 -5
-22 -5 -29 -1 -7 5 -29 5 -49 1 -20 -3 -48 -3 -62 0 -14 4 -34 3 -46 -1 -11
-4 -27 -4 -34 1 -7 5 -23 5 -35 0 -12 -5 -28 -4 -35 0 -8 5 -21 5 -30 0 -9 -5
-22 -5 -29 -1 -7 5 -29 5 -49 1 -20 -3 -48 -3 -62 0 -14 4 -34 3 -46 -1 -11
-4 -27 -4 -34 1 -7 5 -23 5 -35 0 -12 -5 -28 -4 -35 0 -8 5 -21 5 -30 0 -9 -5
-22 -5 -28 -1 -7 4 -35 5 -62 1 -27 -4 -55 -3 -62 1 -6 4 -19 4 -28 -1 -9 -5
-22 -5 -30 0 -8 5 -21 5 -30 0 -9 -5 -22 -5 -30 0 -8 5 -21 5 -31 0 -9 -5 -19
-7 -22 -4 -3 3 -36 5 -74 5 -37 -1 -77 -1 -88 -1 -22 1 -19 1 -91 -1 -28 -1
-55 1 -60 4 -6 3 -16 2 -24 -3 -7 -4 -24 -4 -36 0 -14 6 -26 5 -29 0 -3 -6
-15 -6 -30 0 -15 6 -27 6 -30 -1 -4 -5 -11 -7 -16 -3 -5 3 -40 5 -77 5 -37 -1
-76 -1 -87 -1 -11 1 -24 1 -30 1 -11 0 -111 -1 -160 -1 -8 0 -22 0 -30 0 -8 0
-22 0 -30 0 -8 0 -22 0 -30 0 -8 0 -21 0 -27 0 -20 -1 -151 -1 -173 0 -22 1
-19 1 -91 -1 -28 -1 -55 1 -60 4 -6 3 -16 2 -24 -3 -7 -4 -24 -4 -36 0 -14 6
-26 5 -29 0 -3 -6 -15 -6 -30 0 -15 6 -27 6 -30 -1 -4 -5 -11 -7 -16 -3 -5 3
-40 5 -77 5 -37 -1 -76 -1 -87 -1 -11 1 -24 1 -30 1 -11 0 -111 -1 -160 -1 -8
0 -22 0 -30 0 -8 0 -22 0 -30 0 -8 0 -22 0 -30 0 -8 0 -21 0 -27 0 -20 -1
-151 -1 -173 0 -11 1 -27 1 -35 1 -101 -3 -151 -2 -158 3 -5 3 -12 3 -15 -1z
m276 -327 c3 3 27 5 53 4 47 0 150 0 177 1 6 0 21 0 32 -1 11 0 44 0 74 0 29
0 57 -3 62 -5 4 -3 10 -1 14 5 4 6 11 8 16 4 9 -5 83 -8 104 -4 6 1 14 2 19 1
8 -2 121 -2 156 0 8 0 24 0 35 -1 11 0 44 0 74 0 29 0 57 -3 62 -5 4 -3 10 -1
13 4 4 6 18 6 35 1 16 -4 32 -6 34 -4 3 3 27 5 53 4 47 0 150 0 177 1 6 0 21
0 32 -1 11 0 44 0 74 0 29 0 57 -3 62 -5 4 -3 10 -1 14 5 4 6 11 8 16 4 9 -5
83 -8 104 -4 6 1 14 2 19 1 8 -2 121 -2 156 0 8 0 24 0 35 -1 11 0 44 0 74 0
29 0 57 -3 62 -5 4 -3 10 -1 13 4 4 6 18 6 35 1 16 -4 32 -6 34 -4 3 3 27 5
53 4 27 0 75 0 107 0 31 0 64 0 72 0 37 0 67 1 93 1 15 0 36 0 47 0 20 -1 28
-1 90 0 17 0 37 0 45 0 12 -1 116 0 155 0 6 0 19 0 30 -1 20 0 29 0 90 1 17 0
37 0 45 0 12 -1 116 0 155 0 6 0 19 0 30 -1 20 0 29 0 90 1 17 0 37 0 45 0 12
-1 116 0 155 0 6 0 19 0 30 -1 20 0 29 0 90 1 17 0 37 0 45 0 12 -1 116 0 155
0 6 0 19 0 30 -1 20 0 29 0 90 1 17 0 37 0 45 0 12 -1 116 0 155 0 6 0 19 0
30 -1 20 0 29 0 90 1 17 0 37 0 45 0 12 -1 116 0 155 0 6 0 19 0 30 -1 20 0
29 0 90 1 17 0 37 0 45 0 8 -1 44 -1 80 0 36 0 70 0 75 0 32 -1 122 -1 135 0
67 3 274 -13 350 -26 14 -2 45 -7 70 -10 25 -3 53 -8 62 -11 9 -3 27 -7 40 -9
60 -12 88 -18 148 -37 114 -35 213 -69 257 -89 45 -20 94 -41 103 -44 8 -2
153 -78 175 -92 11 -7 27 -15 35 -19 55 -27 270 -184 360 -264 87 -76 251
-249 288 -302 9 -13 22 -29 28 -35 20 -21 178 -265 199 -308 11 -22 25 -47 32
-55 6 -8 13 -19 14 -25 1 -5 16 -39 32 -75 27 -59 48 -107 52 -120 1 -3 5 -12
8 -20 17 -40 65 -190 62 -190 -3 0 0 -12 6 -27 6 -16 12 -35 14 -43 2 -8 9
-37 15 -65 6 -27 13 -59 15 -70 2 -11 8 -48 14 -82 20 -110 22 -145 25 -353 2
-125 -2 -242 -10 -300 -7 -52 -15 -115 -18 -140 -4 -25 -9 -53 -12 -62 -2 -9
-7 -26 -9 -38 -9 -49 -48 -196 -53 -205 -4 -5 -8 -18 -9 -28 -5 -29 -93 -246
-130 -322 -289 -577 -794 -1014 -1407 -1217 -97 -32 -316 -82 -405 -93 -30 -4
-63 -9 -75 -11 -21 -4 -257 -17 -286 -15 -12 1 -103 1 -155 0 -5 0 -19 0 -30
1 -20 0 -29 0 -90 -1 -16 0 -37 0 -45 0 -12 1 -116 0 -155 0 -5 0 -19 0 -30 1
-20 0 -29 0 -90 -1 -16 0 -37 0 -45 0 -12 1 -116 0 -155 0 -5 0 -19 0 -30 1
-20 0 -29 0 -90 -1 -16 0 -37 0 -45 0 -12 1 -116 0 -155 0 -5 0 -19 0 -30 1
-20 0 -29 0 -90 -1 -16 0 -37 0 -45 0 -12 1 -116 0 -155 0 -5 0 -19 0 -30 1
-20 0 -29 0 -90 -1 -16 0 -37 0 -45 0 -12 1 -116 0 -155 0 -5 0 -19 0 -30 1
-20 0 -29 0 -90 -1 -16 0 -37 0 -45 0 -12 1 -116 0 -155 0 -5 0 -19 0 -30 1
-20 0 -29 0 -90 -1 -16 0 -34 0 -40 0 -16 1 -188 1 -205 0 -8 0 -24 0 -35 1
-11 0 -44 0 -74 0 -29 0 -57 3 -62 5 -4 3 -10 1 -13 -4 -4 -6 -18 -6 -35 -1
-16 4 -32 6 -34 4 -3 -3 -27 -5 -53 -4 -47 0 -150 0 -176 -1 -7 0 -22 0 -33 1
-11 0 -44 0 -74 0 -29 0 -57 3 -62 5 -4 3 -10 1 -14 -5 -4 -6 -11 -8 -16 -4
-9 5 -83 8 -104 4 -5 -1 -14 -2 -19 -1 -8 2 -121 2 -156 0 -8 0 -24 0 -35 1
-11 0 -44 0 -74 0 -29 0 -57 3 -62 5 -4 3 -10 1 -13 -4 -4 -6 -18 -6 -35 -1
-16 4 -32 6 -34 4 -3 -3 -27 -5 -53 -4 -47 0 -150 0 -176 -1 -7 0 -22 0 -33 1
-11 0 -44 0 -74 0 -29 0 -57 3 -62 5 -4 3 -10 1 -14 -5 -4 -6 -11 -8 -16 -4
-9 5 -83 8 -104 4 -5 -1 -14 -2 -19 -1 -8 2 -121 2 -156 0 -8 0 -24 0 -35 1
-11 0 -44 0 -74 0 -29 0 -57 3 -62 5 -4 3 -10 1 -14 -4 -3 -6 -12 -8 -19 -5
-23 9 -97 10 -102 2 -3 -5 -9 -6 -14 -3 -4 2 -81 7 -171 10 -90 3 -177 7 -194
9 -16 2 -50 7 -75 10 -25 4 -67 11 -95 16 -27 5 -61 12 -75 14 -236 44 -587
191 -812 342 -62 42 -114 80 -116 85 -2 5 -9 9 -15 9 -7 0 -31 17 -53 38 -23
20 -53 46 -67 58 -68 53 -257 247 -257 264 0 5 -4 10 -8 10 -12 0 -134 166
-202 273 -85 137 -177 330 -225 472 -51 154 -65 203 -99 375 -5 23 -17 109
-23 160 -8 71 -8 448 0 520 6 56 16 118 32 205 44 245 170 569 310 795 33 52
63 100 67 105 5 6 27 35 51 66 23 31 53 71 67 89 33 44 142 160 210 225 261
248 610 451 946 551 122 36 285 71 369 79 39 4 74 9 78 12 4 3 83 7 174 9 91
2 168 6 170 8 3 2 17 0 33 -4 16 -4 31 -6 33 -4z"/>
</g>
</svg>
