<?xml version="1.0" encoding="utf-8"?><svg viewBox="0 0 24 24" xmlns="http://www.w3.org/2000/svg" xmlns:xlink="http://www.w3.org/1999/xlink"><style>:root>svg{display:none}:root>svg:target{display:block}</style><svg viewBox="0 0 21 15" id="arrow" xmlns="http://www.w3.org/2000/svg"><path d="M20.707 8.207a1 1 0 000-1.414L14.343.429a1 1 0 10-1.414 1.414L18.586 7.5l-5.657 5.657a1 1 0 001.414 1.414l6.364-6.364zM0 8.5h20v-2H0v2z"/></svg><svg viewBox="0 0 16 16" id="escape" xmlns="http://www.w3.org/2000/svg"><path d="M6 10.35L10.35 6m0 4.35L6 6"/></svg><svg viewBox="0 0 24 24" id="log-in" xmlns="http://www.w3.org/2000/svg"><path d="M15 3h4a2 2 0 012 2v14a2 2 0 01-2 2h-4m-5-4l5-5-5-5m5 5H3" stroke-width="2" stroke-linecap="round" stroke-linejoin="round"/></svg><svg viewBox="0 0 24 24" id="search" xmlns="http://www.w3.org/2000/svg"><path d="M13 19a8 8 0 110-16 8 8 0 010 16zM3 21l4.35-4.35" stroke-width="2" stroke-linecap="round" stroke-linejoin="round"/></svg></svg>